<svg xmlns="http://www.w3.org/2000/svg" xmlns:xlink="http://www.w3.org/1999/xlink" width="527" zoomAndPan="magnify" viewBox="0 0 395.25 143.999998" height="192" preserveAspectRatio="xMidYMid meet" version="1.0"><defs><g/><clipPath id="bf839e0ed7"><rect x="0" width="324" y="0" height="78"/></clipPath><clipPath id="1566eae279"><path d="M 47.421875 7 L 86 7 L 86 45.050781 L 47.421875 45.050781 Z M 47.421875 7 " clip-rule="nonzero"/></clipPath><clipPath id="00cb6ba406"><path d="M 67 0.136719 L 76 0.136719 L 76 10 L 67 10 Z M 67 0.136719 " clip-rule="nonzero"/></clipPath><clipPath id="a25eea75a8"><path d="M 83 15 L 91.585938 15 L 91.585938 25 L 83 25 Z M 83 15 " clip-rule="nonzero"/></clipPath><clipPath id="611eb26198"><path d="M 198.277344 50.007812 L 212.355469 50.007812 L 212.355469 64.085938 L 198.277344 64.085938 Z M 198.277344 50.007812 " clip-rule="nonzero"/></clipPath><clipPath id="6c8a8fe520"><path d="M 205.316406 50.007812 C 201.425781 50.007812 198.277344 53.160156 198.277344 57.046875 C 198.277344 60.933594 201.425781 64.085938 205.316406 64.085938 C 209.203125 64.085938 212.355469 60.933594 212.355469 57.046875 C 212.355469 53.160156 209.203125 50.007812 205.316406 50.007812 Z M 205.316406 50.007812 " clip-rule="nonzero"/></clipPath><clipPath id="73f4941bfc"><path d="M 0.277344 0.0078125 L 14.355469 0.0078125 L 14.355469 14.085938 L 0.277344 14.085938 Z M 0.277344 0.0078125 " clip-rule="nonzero"/></clipPath><clipPath id="ed4fbc2e7a"><path d="M 7.316406 0.0078125 C 3.425781 0.0078125 0.277344 3.160156 0.277344 7.046875 C 0.277344 10.933594 3.425781 14.085938 7.316406 14.085938 C 11.203125 14.085938 14.355469 10.933594 14.355469 7.046875 C 14.355469 3.160156 11.203125 0.0078125 7.316406 0.0078125 Z M 7.316406 0.0078125 " clip-rule="nonzero"/></clipPath><clipPath id="3b89dc2ec8"><rect x="0" width="15" y="0" height="15"/></clipPath></defs><g transform="matrix(1, 0, 0, 1, 35, 45)"><g clip-path="url(#bf839e0ed7)"><g fill="#322f30" fill-opacity="1"><g transform="translate(0.590429, 55.824437)"><g><path d="M 45.25 0 L 42.875 -29.828125 L 42.5625 -29.828125 L 32.265625 -0.3125 L 25.4375 -0.3125 L 15.125 -29.828125 L 14.8125 -29.828125 L 12.4375 0 L 0.96875 0 L 5.484375 -50.3125 L 17.6875 -50.3125 L 28.84375 -21.28125 L 40 -50.3125 L 52.203125 -50.3125 L 56.71875 0 Z M 45.25 0 "/></g></g></g><g fill="#322f30" fill-opacity="1"><g transform="translate(53.096602, 55.824437)"><g><path d="M 5.796875 -3.859375 C 2.867188 -7.054688 1.40625 -10.972656 1.40625 -15.609375 C 1.40625 -20.242188 2.867188 -24.164062 5.796875 -27.375 C 8.722656 -30.59375 12.441406 -32.203125 16.953125 -32.203125 C 21.097656 -32.203125 24.515625 -30.898438 27.203125 -28.296875 L 27.203125 -31.28125 L 38 -31.28125 L 38 0 L 27.328125 0 L 27.328125 -3.53125 L 27.203125 -3.53125 C 24.515625 -0.5625 21.097656 0.921875 16.953125 0.921875 C 12.441406 0.921875 8.722656 -0.671875 5.796875 -3.859375 Z M 14.96875 -20.90625 C 13.570312 -19.53125 12.875 -17.765625 12.875 -15.609375 C 12.875 -13.453125 13.539062 -11.691406 14.875 -10.328125 C 16.21875 -8.972656 17.988281 -8.296875 20.1875 -8.296875 C 22.300781 -8.296875 24.035156 -8.984375 25.390625 -10.359375 C 26.753906 -11.742188 27.4375 -13.492188 27.4375 -15.609375 C 27.4375 -17.765625 26.734375 -19.53125 25.328125 -20.90625 C 23.929688 -22.289062 22.21875 -22.984375 20.1875 -22.984375 C 18.113281 -22.984375 16.375 -22.289062 14.96875 -20.90625 Z M 14.96875 -20.90625 "/></g></g></g><g fill="#322f30" fill-opacity="1"><g transform="translate(89.564111, 55.824437)"><g><path d="M 2.25 7.6875 L 11.09375 3.359375 C 12.71875 6.035156 15.546875 7.375 19.578125 7.375 C 21.441406 7.375 23.175781 6.773438 24.78125 5.578125 C 26.394531 4.378906 27.203125 2.539062 27.203125 0.0625 L 27.203125 -2.25 C 25.285156 -0.132812 21.867188 0.921875 16.953125 0.921875 C 12.441406 0.921875 8.722656 -0.671875 5.796875 -3.859375 C 2.867188 -7.054688 1.40625 -10.972656 1.40625 -15.609375 C 1.40625 -20.242188 2.867188 -24.164062 5.796875 -27.375 C 8.722656 -30.59375 12.441406 -32.203125 16.953125 -32.203125 C 20.972656 -32.203125 24.328125 -30.960938 27.015625 -28.484375 L 27.203125 -28.484375 L 27.203125 -31.28125 L 38 -31.28125 L 38 0.859375 C 38 5.941406 36.3125 9.863281 32.9375 12.625 C 29.5625 15.382812 25.109375 16.765625 19.578125 16.765625 C 10.628906 16.765625 4.851562 13.738281 2.25 7.6875 Z M 14.96875 -20.90625 C 13.570312 -19.53125 12.875 -17.765625 12.875 -15.609375 C 12.875 -13.453125 13.539062 -11.691406 14.875 -10.328125 C 16.21875 -8.972656 17.988281 -8.296875 20.1875 -8.296875 C 22.300781 -8.296875 24.035156 -8.984375 25.390625 -10.359375 C 26.753906 -11.742188 27.4375 -13.492188 27.4375 -15.609375 C 27.4375 -17.765625 26.734375 -19.53125 25.328125 -20.90625 C 23.929688 -22.289062 22.21875 -22.984375 20.1875 -22.984375 C 18.113281 -22.984375 16.375 -22.289062 14.96875 -20.90625 Z M 14.96875 -20.90625 "/></g></g></g><g fill="#322f30" fill-opacity="1"><g transform="translate(126.03162, 55.824437)"><g><path d="M 3.65625 0 L 3.65625 -31.28125 L 14.453125 -31.28125 L 14.453125 -27.984375 L 14.578125 -27.984375 C 17.378906 -30.796875 20.367188 -32.203125 23.546875 -32.203125 C 25.085938 -32.203125 26.617188 -32 28.140625 -31.59375 C 29.671875 -31.1875 31.132812 -30.554688 32.53125 -29.703125 C 33.9375 -28.847656 35.078125 -27.632812 35.953125 -26.0625 C 36.828125 -24.5 37.265625 -22.679688 37.265625 -20.609375 L 37.265625 0 L 26.46875 0 L 26.46875 -17.6875 C 26.46875 -19.3125 25.945312 -20.734375 24.90625 -21.953125 C 23.875 -23.171875 22.523438 -23.78125 20.859375 -23.78125 C 19.234375 -23.78125 17.757812 -23.148438 16.4375 -21.890625 C 15.113281 -20.628906 14.453125 -19.226562 14.453125 -17.6875 L 14.453125 0 Z M 3.65625 0 "/></g></g></g><g fill="#322f30" fill-opacity="1"><g transform="translate(161.157494, 55.824437)"><g><path d="M 4.703125 -48.71875 C 5.960938 -49.976562 7.460938 -50.609375 9.203125 -50.609375 C 10.953125 -50.609375 12.457031 -49.976562 13.71875 -48.71875 C 14.976562 -47.46875 15.609375 -45.96875 15.609375 -44.21875 C 15.609375 -42.46875 14.976562 -40.960938 13.71875 -39.703125 C 12.457031 -38.441406 10.953125 -37.8125 9.203125 -37.8125 C 7.460938 -37.8125 5.960938 -38.441406 4.703125 -39.703125 C 3.441406 -40.960938 2.8125 -42.46875 2.8125 -44.21875 C 2.8125 -45.96875 3.441406 -47.46875 4.703125 -48.71875 Z M 3.65625 -31.28125 L 3.65625 0 L 14.453125 0 L 14.453125 -31.28125 Z M 3.65625 -31.28125 "/></g></g></g><g fill="#322f30" fill-opacity="1"><g transform="translate(174.390278, 55.824437)"><g/></g></g><g fill="#322f30" fill-opacity="1"><g transform="translate(185.854547, 55.824437)"><g><path d="M 22.203125 -51.234375 C 24.921875 -51.234375 27.582031 -50.832031 30.1875 -50.03125 C 32.789062 -49.238281 34.722656 -48.457031 35.984375 -47.6875 L 37.8125 -46.46875 L 33.171875 -37.328125 C 32.804688 -37.566406 32.296875 -37.878906 31.640625 -38.265625 C 30.992188 -38.648438 29.773438 -39.164062 27.984375 -39.8125 C 26.203125 -40.46875 24.535156 -40.796875 22.984375 -40.796875 C 21.078125 -40.796875 19.601562 -40.390625 18.5625 -39.578125 C 17.53125 -38.765625 17.015625 -37.664062 17.015625 -36.28125 C 17.015625 -35.59375 17.257812 -34.953125 17.75 -34.359375 C 18.238281 -33.773438 19.070312 -33.144531 20.25 -32.46875 C 21.425781 -31.800781 22.460938 -31.265625 23.359375 -30.859375 C 24.253906 -30.453125 25.632812 -29.84375 27.5 -29.03125 C 30.75 -27.644531 33.523438 -25.757812 35.828125 -23.375 C 38.128906 -21 39.28125 -18.3125 39.28125 -15.3125 C 39.28125 -12.425781 38.757812 -9.90625 37.71875 -7.75 C 36.675781 -5.59375 35.25 -3.90625 33.4375 -2.6875 C 31.632812 -1.46875 29.632812 -0.5625 27.4375 0.03125 C 25.25 0.625 22.875 0.921875 20.3125 0.921875 C 18.113281 0.921875 15.957031 0.695312 13.84375 0.25 C 11.726562 -0.195312 9.957031 -0.753906 8.53125 -1.421875 C 7.113281 -2.097656 5.832031 -2.757812 4.6875 -3.40625 C 3.550781 -4.0625 2.722656 -4.613281 2.203125 -5.0625 L 1.40625 -5.734375 L 7.140625 -15.375 C 7.617188 -14.96875 8.285156 -14.445312 9.140625 -13.8125 C 9.992188 -13.1875 11.507812 -12.34375 13.6875 -11.28125 C 15.863281 -10.226562 17.785156 -9.703125 19.453125 -9.703125 C 24.296875 -9.703125 26.71875 -11.347656 26.71875 -14.640625 C 26.71875 -15.328125 26.539062 -15.960938 26.1875 -16.546875 C 25.84375 -17.140625 25.234375 -17.726562 24.359375 -18.3125 C 23.484375 -18.90625 22.710938 -19.375 22.046875 -19.71875 C 21.378906 -20.070312 20.28125 -20.601562 18.75 -21.3125 C 17.226562 -22.019531 16.101562 -22.5625 15.375 -22.9375 C 12.320312 -24.4375 9.960938 -26.3125 8.296875 -28.5625 C 6.628906 -30.820312 5.796875 -33.253906 5.796875 -35.859375 C 5.796875 -40.367188 7.460938 -44.054688 10.796875 -46.921875 C 14.128906 -49.796875 17.929688 -51.234375 22.203125 -51.234375 Z M 22.203125 -51.234375 "/></g></g></g><g fill="#322f30" fill-opacity="1"><g transform="translate(221.651244, 55.824437)"><g><path d="M 5.484375 -31.28125 L 5.484375 -42.9375 L 16.28125 -42.9375 L 16.28125 -31.28125 L 22.875 -31.28125 L 22.875 -23.046875 L 16.28125 -23.046875 L 16.28125 -13.109375 C 16.28125 -10.222656 17.09375 -8.78125 18.71875 -8.78125 C 19.125 -8.78125 19.550781 -8.859375 20 -9.015625 C 20.445312 -9.179688 20.796875 -9.347656 21.046875 -9.515625 L 21.40625 -9.75 L 24.09375 -1.03125 C 21.769531 0.269531 19.125 0.921875 16.15625 0.921875 C 14.125 0.921875 12.375 0.566406 10.90625 -0.140625 C 9.445312 -0.859375 8.34375 -1.816406 7.59375 -3.015625 C 6.84375 -4.210938 6.300781 -5.472656 5.96875 -6.796875 C 5.644531 -8.117188 5.484375 -9.53125 5.484375 -11.03125 L 5.484375 -23.046875 L 0.96875 -23.046875 L 0.96875 -31.28125 Z M 5.484375 -31.28125 "/></g></g></g><g fill="#322f30" fill-opacity="1"><g transform="translate(240.555503, 55.824437)"><g><path d="M 27.375 -31.28125 L 39.828125 -31.28125 L 15.25 15.859375 L 2.8125 15.859375 L 13.59375 -4.875 L -1.21875 -31.28125 L 11.21875 -31.28125 L 19.9375 -15.25 Z M 27.375 -31.28125 "/></g></g></g><g fill="#322f30" fill-opacity="1"><g transform="translate(273.97384, 55.824437)"><g><path d="M 3.65625 0 L 3.65625 -52.453125 L 14.453125 -52.453125 L 14.453125 0 Z M 3.65625 0 "/></g></g></g><g fill="#322f30" fill-opacity="1"><g transform="translate(286.90169, 55.824437)"><g><path d="M 35.3125 -14.140625 L 12.625 -14.140625 C 12.625 -11.953125 13.332031 -10.328125 14.75 -9.265625 C 16.175781 -8.210938 17.722656 -7.6875 19.390625 -7.6875 C 21.140625 -7.6875 22.519531 -7.921875 23.53125 -8.390625 C 24.550781 -8.859375 25.710938 -9.78125 27.015625 -11.15625 L 34.828125 -7.25 C 31.566406 -1.800781 26.15625 0.921875 18.59375 0.921875 C 13.882812 0.921875 9.84375 -0.691406 6.46875 -3.921875 C 3.09375 -7.160156 1.40625 -11.054688 1.40625 -15.609375 C 1.40625 -20.160156 3.09375 -24.0625 6.46875 -27.3125 C 9.84375 -30.570312 13.882812 -32.203125 18.59375 -32.203125 C 23.5625 -32.203125 27.597656 -30.765625 30.703125 -27.890625 C 33.816406 -25.023438 35.375 -20.929688 35.375 -15.609375 C 35.375 -14.878906 35.351562 -14.390625 35.3125 -14.140625 Z M 12.921875 -20.125 L 24.828125 -20.125 C 24.578125 -21.75 23.929688 -23 22.890625 -23.875 C 21.859375 -24.75 20.53125 -25.1875 18.90625 -25.1875 C 17.113281 -25.1875 15.6875 -24.71875 14.625 -23.78125 C 13.570312 -22.84375 13.003906 -21.625 12.921875 -20.125 Z M 12.921875 -20.125 "/></g></g></g></g></g><path fill="#56c6c8" d="M 63.695312 44.519531 C 59.597656 44.519531 55.746094 42.9375 52.851562 40.066406 C 49.960938 37.195312 48.367188 33.371094 48.367188 29.300781 C 48.367188 25.226562 49.960938 21.402344 52.851562 18.53125 L 63.144531 8.316406 C 63.246094 8.210938 63.386719 8.15625 63.53125 8.15625 C 63.679688 8.15625 63.816406 8.210938 63.921875 8.316406 L 68.265625 12.625 C 68.367188 12.726562 68.425781 12.867188 68.425781 13.011719 C 68.425781 13.15625 68.367188 13.292969 68.265625 13.394531 L 57.972656 23.617188 C 54.8125 26.75 54.8125 31.847656 57.972656 34.984375 C 59.5 36.5 61.53125 37.335938 63.695312 37.335938 C 65.863281 37.335938 67.894531 36.5 69.421875 34.984375 L 79.714844 24.765625 C 79.816406 24.664062 79.957031 24.605469 80.101562 24.605469 C 80.246094 24.605469 80.386719 24.664062 80.488281 24.765625 L 84.832031 29.078125 C 84.9375 29.179688 84.996094 29.316406 84.996094 29.460938 C 84.996094 29.609375 84.9375 29.746094 84.832031 29.847656 L 74.539062 40.066406 C 71.648438 42.9375 67.796875 44.519531 63.695312 44.519531 " fill-opacity="1" fill-rule="nonzero"/><g clip-path="url(#1566eae279)"><path fill="#445eb4" d="M 63.53125 7.609375 C 63.242188 7.609375 62.964844 7.722656 62.757812 7.929688 L 52.464844 18.148438 C 49.46875 21.121094 47.820312 25.082031 47.820312 29.300781 C 47.820312 33.519531 49.46875 37.476562 52.464844 40.453125 C 55.460938 43.425781 59.449219 45.0625 63.695312 45.0625 C 67.945312 45.0625 71.933594 43.425781 74.929688 40.453125 L 85.222656 30.234375 C 85.429688 30.03125 85.542969 29.75 85.542969 29.460938 C 85.542969 29.175781 85.429688 28.894531 85.222656 28.691406 L 80.878906 24.378906 C 80.671875 24.175781 80.390625 24.058594 80.101562 24.058594 C 79.808594 24.058594 79.53125 24.175781 79.324219 24.378906 L 69.03125 34.597656 C 67.613281 36.011719 65.714844 36.789062 63.695312 36.789062 C 61.675781 36.789062 59.78125 36.011719 58.359375 34.597656 C 56.9375 33.1875 56.152344 31.304688 56.152344 29.300781 C 56.152344 27.296875 56.9375 25.414062 58.359375 24 L 68.652344 13.785156 C 68.855469 13.578125 68.972656 13.300781 68.972656 13.011719 C 68.972656 12.722656 68.855469 12.445312 68.652344 12.242188 L 64.308594 7.929688 C 64.101562 7.722656 63.824219 7.609375 63.53125 7.609375 M 63.53125 8.699219 L 67.875 13.011719 L 57.582031 23.230469 C 54.214844 26.578125 54.214844 32.023438 57.582031 35.367188 C 59.269531 37.042969 61.484375 37.878906 63.695312 37.878906 C 65.910156 37.878906 68.125 37.042969 69.808594 35.367188 L 80.101562 25.148438 L 84.445312 29.460938 L 74.152344 39.683594 C 71.269531 42.542969 67.484375 43.972656 63.695312 43.972656 C 59.910156 43.972656 56.125 42.542969 53.242188 39.683594 C 47.476562 33.957031 47.476562 24.640625 53.242188 18.917969 L 63.53125 8.699219 " fill-opacity="1" fill-rule="nonzero"/></g><path fill="#18938d" d="M 55.910156 33.023438 C 55.613281 32.800781 55.332031 32.554688 55.0625 32.289062 C 51.691406 28.941406 51.691406 23.496094 55.0625 20.152344 L 61.195312 14.0625 L 64.007812 16.851562 L 57.582031 23.230469 C 57.582031 23.234375 57.582031 23.234375 57.578125 23.238281 C 57.578125 23.238281 57.578125 23.238281 57.574219 23.238281 C 57.574219 23.242188 57.570312 23.242188 57.570312 23.246094 L 57.5625 23.253906 L 57.558594 23.253906 L 57.550781 23.261719 L 57.546875 23.269531 L 57.539062 23.277344 L 57.535156 23.277344 L 57.523438 23.292969 L 57.515625 23.300781 C 57.511719 23.304688 57.507812 23.304688 57.507812 23.308594 L 57.5 23.316406 C 57.5 23.316406 57.5 23.316406 57.496094 23.316406 C 57.496094 23.320312 57.488281 23.328125 57.484375 23.332031 C 54.90625 25.976562 54.382812 29.871094 55.910156 33.023438 " fill-opacity="1" fill-rule="nonzero"/><path fill="#234c7c" d="M 55.910156 33.027344 C 55.910156 33.027344 55.910156 33.023438 55.910156 33.023438 C 54.382812 29.871094 54.90625 25.976562 57.484375 23.332031 C 54.90625 25.976562 54.382812 29.875 55.910156 33.027344 M 57.484375 23.332031 C 57.488281 23.328125 57.496094 23.320312 57.496094 23.316406 C 57.496094 23.320312 57.488281 23.328125 57.484375 23.332031 M 57.5 23.316406 L 57.507812 23.308594 L 57.5 23.316406 M 57.507812 23.308594 C 57.507812 23.304688 57.511719 23.304688 57.515625 23.300781 C 57.511719 23.304688 57.507812 23.304688 57.507812 23.308594 M 57.515625 23.300781 L 57.523438 23.292969 L 57.515625 23.300781 M 57.523438 23.292969 L 57.535156 23.277344 L 57.523438 23.292969 M 57.539062 23.277344 L 57.546875 23.269531 L 57.539062 23.277344 M 57.546875 23.269531 L 57.550781 23.261719 L 57.546875 23.269531 M 57.550781 23.261719 L 57.558594 23.253906 L 57.550781 23.261719 M 57.5625 23.253906 L 57.570312 23.246094 L 57.5625 23.253906 M 57.570312 23.246094 C 57.570312 23.242188 57.574219 23.242188 57.574219 23.238281 C 57.574219 23.242188 57.570312 23.242188 57.570312 23.246094 M 57.578125 23.238281 C 57.582031 23.234375 57.582031 23.234375 57.582031 23.230469 L 64.007812 16.851562 L 57.582031 23.230469 C 57.582031 23.234375 57.582031 23.234375 57.578125 23.238281 " fill-opacity="1" fill-rule="nonzero"/><path fill="#18938d" d="M 63.695312 43.972656 C 59.976562 43.972656 56.257812 42.59375 53.398438 39.832031 C 53.351562 39.792969 53.3125 39.75 53.265625 39.707031 C 53.257812 39.695312 53.25 39.691406 53.242188 39.683594 C 53.214844 39.65625 53.191406 39.632812 53.167969 39.605469 C 53.167969 39.605469 53.164062 39.605469 53.164062 39.605469 L 53.160156 39.597656 C 53.15625 39.597656 53.15625 39.59375 53.152344 39.59375 L 53.152344 39.589844 C 52.335938 38.769531 51.644531 37.875 51.066406 36.929688 C 53.902344 39.570312 57.539062 40.894531 61.179688 40.894531 C 64.964844 40.890625 68.75 39.460938 71.628906 36.601562 L 77.761719 30.511719 L 80.578125 33.304688 L 74.152344 39.683594 C 71.730469 42.085938 68.667969 43.480469 65.507812 43.863281 C 64.902344 43.9375 64.300781 43.972656 63.695312 43.972656 " fill-opacity="1" fill-rule="nonzero"/><path fill="#234c7c" d="M 65.507812 43.863281 C 68.667969 43.480469 71.730469 42.085938 74.152344 39.683594 L 80.578125 33.304688 L 74.152344 39.683594 C 71.730469 42.085938 68.667969 43.480469 65.507812 43.863281 M 53.398438 39.832031 C 53.351562 39.792969 53.308594 39.75 53.265625 39.707031 C 53.3125 39.75 53.351562 39.792969 53.398438 39.832031 M 53.265625 39.707031 C 53.257812 39.695312 53.25 39.691406 53.242188 39.683594 C 53.214844 39.65625 53.191406 39.632812 53.167969 39.605469 C 53.191406 39.632812 53.214844 39.65625 53.242188 39.683594 C 53.25 39.691406 53.257812 39.695312 53.265625 39.707031 M 53.164062 39.605469 L 53.160156 39.597656 L 53.164062 39.605469 M 53.152344 39.59375 L 53.152344 39.589844 L 53.152344 39.59375 " fill-opacity="1" fill-rule="nonzero"/><path fill="#fabd42" d="M 81.351562 33.078125 C 81.210938 33.078125 81.070312 33.023438 80.964844 32.917969 L 76.621094 28.605469 C 76.40625 28.394531 76.40625 28.050781 76.621094 27.835938 L 79.714844 24.765625 C 79.816406 24.664062 79.957031 24.605469 80.101562 24.605469 C 80.246094 24.605469 80.386719 24.664062 80.488281 24.765625 L 84.832031 29.078125 C 84.9375 29.179688 84.996094 29.316406 84.996094 29.460938 C 84.996094 29.609375 84.9375 29.746094 84.832031 29.847656 L 81.738281 32.917969 C 81.632812 33.023438 81.492188 33.078125 81.351562 33.078125 " fill-opacity="1" fill-rule="nonzero"/><path fill="#445eb4" d="M 80.101562 24.058594 C 79.808594 24.058594 79.53125 24.175781 79.324219 24.378906 L 76.230469 27.449219 C 75.804688 27.878906 75.804688 28.566406 76.230469 28.992188 L 80.578125 33.304688 C 80.789062 33.515625 81.070312 33.625 81.351562 33.625 C 81.632812 33.625 81.914062 33.515625 82.128906 33.304688 L 85.222656 30.234375 C 85.429688 30.027344 85.542969 29.75 85.542969 29.460938 C 85.542969 29.175781 85.429688 28.894531 85.222656 28.691406 L 80.878906 24.378906 C 80.671875 24.175781 80.390625 24.058594 80.101562 24.058594 M 80.101562 25.148438 L 84.445312 29.460938 L 81.351562 32.535156 L 77.011719 28.222656 L 80.101562 25.148438 " fill-opacity="1" fill-rule="nonzero"/><path fill="#f5821f" d="M 81.351562 32.535156 L 78.667969 29.867188 L 81.761719 26.796875 L 84.445312 29.460938 L 81.351562 32.535156 " fill-opacity="1" fill-rule="nonzero"/><path fill="#4c4e55" d="M 81.351562 32.535156 L 78.667969 29.867188 L 81.351562 32.535156 L 84.445312 29.460938 L 81.351562 32.535156 M 84.445312 29.460938 L 81.761719 26.796875 L 84.445312 29.460938 " fill-opacity="1" fill-rule="nonzero"/><path fill="#fabd42" d="M 64.785156 16.628906 C 64.644531 16.628906 64.503906 16.574219 64.394531 16.46875 L 60.050781 12.15625 C 59.835938 11.945312 59.835938 11.597656 60.050781 11.386719 L 63.144531 8.316406 C 63.246094 8.210938 63.386719 8.15625 63.53125 8.15625 C 63.679688 8.15625 63.816406 8.210938 63.921875 8.316406 L 68.265625 12.625 C 68.367188 12.726562 68.425781 12.867188 68.425781 13.011719 C 68.425781 13.15625 68.367188 13.292969 68.265625 13.394531 L 65.171875 16.46875 C 65.066406 16.574219 64.925781 16.628906 64.785156 16.628906 " fill-opacity="1" fill-rule="nonzero"/><path fill="#445eb4" d="M 63.53125 7.609375 C 63.242188 7.609375 62.960938 7.722656 62.757812 7.929688 L 59.664062 11 C 59.234375 11.425781 59.234375 12.117188 59.664062 12.542969 L 64.007812 16.851562 C 64.222656 17.066406 64.503906 17.171875 64.785156 17.171875 C 65.066406 17.171875 65.34375 17.066406 65.558594 16.851562 L 68.652344 13.785156 C 68.855469 13.578125 68.972656 13.300781 68.972656 13.011719 C 68.972656 12.722656 68.855469 12.445312 68.652344 12.242188 L 64.308594 7.929688 C 64.101562 7.722656 63.824219 7.609375 63.53125 7.609375 M 63.53125 8.699219 L 67.875 13.011719 L 64.785156 16.082031 L 60.4375 11.769531 L 63.53125 8.699219 " fill-opacity="1" fill-rule="nonzero"/><path fill="#f5821f" d="M 64.785156 16.082031 L 62.28125 13.597656 L 65.371094 10.527344 L 67.875 13.011719 L 64.785156 16.082031 " fill-opacity="1" fill-rule="nonzero"/><path fill="#4c4e55" d="M 64.785156 16.082031 L 67.875 13.011719 L 64.785156 16.082031 M 63.027344 14.335938 L 62.28125 13.597656 L 63.027344 14.335938 " fill-opacity="1" fill-rule="nonzero"/><g clip-path="url(#00cb6ba406)"><path fill="#445eb4" d="M 74.1875 1.394531 L 75.453125 0.410156 L 72.925781 0.140625 L 67.875 5.203125 L 72.34375 5.675781 L 68.523438 9.054688 L 74.027344 4.90625 L 70.207031 4.484375 L 74.1875 1.394531 " fill-opacity="1" fill-rule="nonzero"/></g><g clip-path="url(#a25eea75a8)"><path fill="#445eb4" d="M 90.253906 16.980469 L 91.519531 16 L 88.996094 15.726562 L 83.941406 20.789062 L 88.410156 21.265625 L 84.589844 24.640625 L 90.09375 20.496094 L 86.269531 20.074219 L 90.253906 16.980469 " fill-opacity="1" fill-rule="nonzero"/></g><path fill="#ffffff" d="M 54.539062 20.285156 L 59.472656 15.390625 C 59.6875 15.175781 59.6875 14.828125 59.472656 14.617188 C 59.257812 14.40625 58.910156 14.40625 58.699219 14.617188 L 53.765625 19.515625 C 53.550781 19.726562 53.550781 20.074219 53.765625 20.285156 C 53.976562 20.496094 54.324219 20.496094 54.539062 20.285156 " fill-opacity="1" fill-rule="nonzero"/><path fill="#ffffff" d="M 62.769531 12.117188 L 63.933594 10.957031 C 64.148438 10.746094 64.148438 10.398438 63.933594 10.1875 C 63.722656 9.976562 63.375 9.976562 63.160156 10.1875 L 61.992188 11.347656 C 61.777344 11.558594 61.777344 11.90625 61.992188 12.117188 C 62.207031 12.332031 62.554688 12.332031 62.769531 12.117188 " fill-opacity="1" fill-rule="nonzero"/><path fill="#ffffff" d="M 70.707031 36.808594 L 75.640625 31.910156 C 75.855469 31.699219 75.855469 31.351562 75.640625 31.140625 C 75.425781 30.925781 75.078125 30.925781 74.863281 31.140625 L 69.929688 36.039062 C 69.71875 36.25 69.71875 36.59375 69.929688 36.808594 C 70.144531 37.019531 70.496094 37.019531 70.707031 36.808594 " fill-opacity="1" fill-rule="nonzero"/><path fill="#ffffff" d="M 78.933594 28.640625 L 80.101562 27.480469 C 80.316406 27.269531 80.316406 26.921875 80.101562 26.710938 C 79.886719 26.5 79.539062 26.5 79.324219 26.710938 L 78.15625 27.871094 C 77.941406 28.082031 77.941406 28.425781 78.15625 28.640625 C 78.371094 28.851562 78.71875 28.851562 78.933594 28.640625 " fill-opacity="1" fill-rule="nonzero"/><g clip-path="url(#611eb26198)"><g clip-path="url(#6c8a8fe520)"><g transform="matrix(1, 0, 0, 1, 198, 50)"><g clip-path="url(#3b89dc2ec8)"><g clip-path="url(#73f4941bfc)"><g clip-path="url(#ed4fbc2e7a)"><path fill="#ff6f61" d="M 0.277344 0.0078125 L 14.355469 0.0078125 L 14.355469 14.085938 L 0.277344 14.085938 Z M 0.277344 0.0078125 " fill-opacity="1" fill-rule="nonzero"/></g></g></g></g></g></g><g fill="#322f30" fill-opacity="1"><g transform="translate(53.775788, 134.422975)"><g><path d="M 1.125 0 L 1.125 -7.671875 L 2.015625 -7.671875 L 5.03125 -3.125 L 8.03125 -7.671875 L 8.921875 -7.671875 L 8.921875 0 L 7.96875 0 L 7.96875 -5.875 L 5.421875 -2.046875 L 4.625 -2.046875 L 2.078125 -5.875 L 2.078125 0 Z M 1.125 0 "/></g></g></g><g fill="#322f30" fill-opacity="1"><g transform="translate(69.798274, 134.422975)"><g><path d="M 0.1875 0 L 3.34375 -7.671875 L 4.25 -7.671875 L 7.40625 0 L 6.390625 0 L 5.65625 -1.75 L 1.921875 -1.75 L 1.21875 0 Z M 2.296875 -2.640625 L 5.296875 -2.640625 L 3.796875 -6.328125 Z M 2.296875 -2.640625 "/></g></g></g><g fill="#322f30" fill-opacity="1"><g transform="translate(83.363171, 134.422975)"><g><path d="M 1.125 0 L 1.125 -7.671875 L 2.078125 -7.671875 L 2.078125 -4.375 L 3.1875 -4.375 C 3.695312 -4.375 4.082031 -4.46875 4.34375 -4.65625 C 4.613281 -4.84375 4.828125 -5.144531 4.984375 -5.5625 L 5.765625 -7.671875 L 6.796875 -7.671875 L 5.84375 -5.171875 C 5.738281 -4.878906 5.601562 -4.625 5.4375 -4.40625 C 5.28125 -4.195312 5.09375 -4.019531 4.875 -3.875 L 7.078125 0 L 5.96875 0 L 3.984375 -3.515625 C 3.742188 -3.472656 3.476562 -3.453125 3.1875 -3.453125 L 2.078125 -3.453125 L 2.078125 0 Z M 1.125 0 "/></g></g></g><g fill="#322f30" fill-opacity="1"><g transform="translate(96.840298, 134.422975)"><g><path d="M 1.125 0 L 1.125 -7.671875 L 5.78125 -7.671875 L 5.78125 -6.78125 L 2.078125 -6.78125 L 2.078125 -4.359375 L 5.5 -4.359375 L 5.5 -3.46875 L 2.078125 -3.46875 L 2.078125 -0.90625 L 5.90625 -0.90625 L 5.90625 0 Z M 1.125 0 "/></g></g></g><g fill="#322f30" fill-opacity="1"><g transform="translate(109.428738, 134.422975)"><g/></g></g><g fill="#322f30" fill-opacity="1"><g transform="translate(118.122329, 134.422975)"><g><path d="M 3.078125 0 L 3.078125 -2.765625 L 0.1875 -7.671875 L 1.3125 -7.671875 L 2.5625 -5.53125 L 3.546875 -3.796875 L 5.8125 -7.671875 L 6.90625 -7.671875 L 4.015625 -2.765625 L 4.015625 0 Z M 3.078125 0 "/></g></g></g><g fill="#322f30" fill-opacity="1"><g transform="translate(131.182537, 134.422975)"><g><path d="M 4.609375 0.140625 C 3.828125 0.140625 3.132812 -0.0234375 2.53125 -0.359375 C 1.9375 -0.703125 1.472656 -1.171875 1.140625 -1.765625 C 0.804688 -2.367188 0.640625 -3.0625 0.640625 -3.84375 C 0.640625 -4.625 0.804688 -5.3125 1.140625 -5.90625 C 1.472656 -6.5 1.9375 -6.96875 2.53125 -7.3125 C 3.132812 -7.65625 3.828125 -7.828125 4.609375 -7.828125 C 5.390625 -7.828125 6.078125 -7.65625 6.671875 -7.3125 C 7.265625 -6.96875 7.734375 -6.5 8.078125 -5.90625 C 8.421875 -5.3125 8.59375 -4.625 8.59375 -3.84375 C 8.59375 -3.0625 8.421875 -2.367188 8.078125 -1.765625 C 7.734375 -1.171875 7.265625 -0.703125 6.671875 -0.359375 C 6.078125 -0.0234375 5.390625 0.140625 4.609375 0.140625 Z M 1.625 -3.84375 C 1.625 -3.25 1.75 -2.722656 2 -2.265625 C 2.25 -1.816406 2.597656 -1.460938 3.046875 -1.203125 C 3.503906 -0.953125 4.023438 -0.828125 4.609375 -0.828125 C 5.203125 -0.828125 5.71875 -0.953125 6.15625 -1.203125 C 6.601562 -1.460938 6.953125 -1.816406 7.203125 -2.265625 C 7.460938 -2.722656 7.59375 -3.25 7.59375 -3.84375 C 7.59375 -4.4375 7.460938 -4.957031 7.203125 -5.40625 C 6.953125 -5.863281 6.601562 -6.21875 6.15625 -6.46875 C 5.71875 -6.726562 5.203125 -6.859375 4.609375 -6.859375 C 4.023438 -6.859375 3.503906 -6.726562 3.046875 -6.46875 C 2.597656 -6.21875 2.25 -5.863281 2 -5.40625 C 1.75 -4.957031 1.625 -4.4375 1.625 -3.84375 Z M 1.625 -3.84375 "/></g></g></g><g fill="#322f30" fill-opacity="1"><g transform="translate(146.371199, 134.422975)"><g><path d="M 4 0.125 C 3.0625 0.125 2.332031 -0.160156 1.8125 -0.734375 C 1.289062 -1.304688 1.03125 -2.101562 1.03125 -3.125 L 1.03125 -7.671875 L 1.984375 -7.671875 L 1.984375 -3.1875 C 1.984375 -2.40625 2.15625 -1.8125 2.5 -1.40625 C 2.84375 -1.007812 3.34375 -0.8125 4 -0.8125 C 5.332031 -0.8125 6 -1.601562 6 -3.1875 L 6 -7.671875 L 6.96875 -7.671875 L 6.96875 -3.125 C 6.96875 -2.101562 6.703125 -1.304688 6.171875 -0.734375 C 5.648438 -0.160156 4.925781 0.125 4 0.125 Z M 4 0.125 "/></g></g></g><g fill="#322f30" fill-opacity="1"><g transform="translate(160.342037, 134.422975)"><g><path d="M 1.125 0 L 1.125 -7.671875 L 4.046875 -7.671875 C 4.578125 -7.671875 5.039062 -7.570312 5.4375 -7.375 C 5.832031 -7.175781 6.140625 -6.894531 6.359375 -6.53125 C 6.578125 -6.164062 6.6875 -5.722656 6.6875 -5.203125 C 6.6875 -4.585938 6.523438 -4.078125 6.203125 -3.671875 C 5.878906 -3.265625 5.4375 -2.992188 4.875 -2.859375 L 6.8125 0 L 5.65625 0 L 3.765625 -2.75 L 2.078125 -2.75 L 2.078125 0 Z M 2.078125 -3.671875 L 3.9375 -3.671875 C 4.5 -3.671875 4.929688 -3.800781 5.234375 -4.0625 C 5.546875 -4.332031 5.703125 -4.710938 5.703125 -5.203125 C 5.703125 -5.691406 5.546875 -6.070312 5.234375 -6.34375 C 4.929688 -6.613281 4.5 -6.75 3.9375 -6.75 L 2.078125 -6.75 Z M 2.078125 -3.671875 "/></g></g></g><g fill="#322f30" fill-opacity="1"><g transform="translate(173.786245, 134.422975)"><g/></g></g><g fill="#322f30" fill-opacity="1"><g transform="translate(182.479835, 134.422975)"><g><path d="M 1.125 0 L 1.125 -7.671875 L 2.015625 -7.671875 L 5.03125 -3.125 L 8.03125 -7.671875 L 8.921875 -7.671875 L 8.921875 0 L 7.96875 0 L 7.96875 -5.875 L 5.421875 -2.046875 L 4.625 -2.046875 L 2.078125 -5.875 L 2.078125 0 Z M 1.125 0 "/></g></g></g><g fill="#322f30" fill-opacity="1"><g transform="translate(198.502321, 134.422975)"><g><path d="M 1.125 0 L 1.125 -7.671875 L 5.78125 -7.671875 L 5.78125 -6.78125 L 2.078125 -6.78125 L 2.078125 -4.359375 L 5.5 -4.359375 L 5.5 -3.46875 L 2.078125 -3.46875 L 2.078125 -0.90625 L 5.90625 -0.90625 L 5.90625 0 Z M 1.125 0 "/></g></g></g><g fill="#322f30" fill-opacity="1"><g transform="translate(211.090762, 134.422975)"><g><path d="M 1.125 0 L 1.125 -7.671875 L 2.015625 -7.671875 L 5.03125 -3.125 L 8.03125 -7.671875 L 8.921875 -7.671875 L 8.921875 0 L 7.96875 0 L 7.96875 -5.875 L 5.421875 -2.046875 L 4.625 -2.046875 L 2.078125 -5.875 L 2.078125 0 Z M 1.125 0 "/></g></g></g><g fill="#322f30" fill-opacity="1"><g transform="translate(227.113248, 134.422975)"><g><path d="M 4.609375 0.140625 C 3.828125 0.140625 3.132812 -0.0234375 2.53125 -0.359375 C 1.9375 -0.703125 1.472656 -1.171875 1.140625 -1.765625 C 0.804688 -2.367188 0.640625 -3.0625 0.640625 -3.84375 C 0.640625 -4.625 0.804688 -5.3125 1.140625 -5.90625 C 1.472656 -6.5 1.9375 -6.96875 2.53125 -7.3125 C 3.132812 -7.65625 3.828125 -7.828125 4.609375 -7.828125 C 5.390625 -7.828125 6.078125 -7.65625 6.671875 -7.3125 C 7.265625 -6.96875 7.734375 -6.5 8.078125 -5.90625 C 8.421875 -5.3125 8.59375 -4.625 8.59375 -3.84375 C 8.59375 -3.0625 8.421875 -2.367188 8.078125 -1.765625 C 7.734375 -1.171875 7.265625 -0.703125 6.671875 -0.359375 C 6.078125 -0.0234375 5.390625 0.140625 4.609375 0.140625 Z M 1.625 -3.84375 C 1.625 -3.25 1.75 -2.722656 2 -2.265625 C 2.25 -1.816406 2.597656 -1.460938 3.046875 -1.203125 C 3.503906 -0.953125 4.023438 -0.828125 4.609375 -0.828125 C 5.203125 -0.828125 5.71875 -0.953125 6.15625 -1.203125 C 6.601562 -1.460938 6.953125 -1.816406 7.203125 -2.265625 C 7.460938 -2.722656 7.59375 -3.25 7.59375 -3.84375 C 7.59375 -4.4375 7.460938 -4.957031 7.203125 -5.40625 C 6.953125 -5.863281 6.601562 -6.21875 6.15625 -6.46875 C 5.71875 -6.726562 5.203125 -6.859375 4.609375 -6.859375 C 4.023438 -6.859375 3.503906 -6.726562 3.046875 -6.46875 C 2.597656 -6.21875 2.25 -5.863281 2 -5.40625 C 1.75 -4.957031 1.625 -4.4375 1.625 -3.84375 Z M 1.625 -3.84375 "/></g></g></g><g fill="#322f30" fill-opacity="1"><g transform="translate(242.30191, 134.422975)"><g><path d="M 1.125 0 L 1.125 -7.671875 L 4.046875 -7.671875 C 4.578125 -7.671875 5.039062 -7.570312 5.4375 -7.375 C 5.832031 -7.175781 6.140625 -6.894531 6.359375 -6.53125 C 6.578125 -6.164062 6.6875 -5.722656 6.6875 -5.203125 C 6.6875 -4.585938 6.523438 -4.078125 6.203125 -3.671875 C 5.878906 -3.265625 5.4375 -2.992188 4.875 -2.859375 L 6.8125 0 L 5.65625 0 L 3.765625 -2.75 L 2.078125 -2.75 L 2.078125 0 Z M 2.078125 -3.671875 L 3.9375 -3.671875 C 4.5 -3.671875 4.929688 -3.800781 5.234375 -4.0625 C 5.546875 -4.332031 5.703125 -4.710938 5.703125 -5.203125 C 5.703125 -5.691406 5.546875 -6.070312 5.234375 -6.34375 C 4.929688 -6.613281 4.5 -6.75 3.9375 -6.75 L 2.078125 -6.75 Z M 2.078125 -3.671875 "/></g></g></g><g fill="#322f30" fill-opacity="1"><g transform="translate(255.746117, 134.422975)"><g><path d="M 1.125 0 L 1.125 -7.671875 L 2.078125 -7.671875 L 2.078125 0 Z M 1.125 0 "/></g></g></g><g fill="#322f30" fill-opacity="1"><g transform="translate(264.922453, 134.422975)"><g><path d="M 1.125 0 L 1.125 -7.671875 L 5.78125 -7.671875 L 5.78125 -6.78125 L 2.078125 -6.78125 L 2.078125 -4.359375 L 5.5 -4.359375 L 5.5 -3.46875 L 2.078125 -3.46875 L 2.078125 -0.90625 L 5.90625 -0.90625 L 5.90625 0 Z M 1.125 0 "/></g></g></g><g fill="#322f30" fill-opacity="1"><g transform="translate(277.510893, 134.422975)"><g><path d="M 3.671875 0.140625 C 3.054688 0.140625 2.523438 0.0351562 2.078125 -0.171875 C 1.628906 -0.378906 1.28125 -0.671875 1.03125 -1.046875 C 0.789062 -1.421875 0.664062 -1.859375 0.65625 -2.359375 L 1.625 -2.359375 C 1.632812 -1.867188 1.828125 -1.484375 2.203125 -1.203125 C 2.585938 -0.921875 3.078125 -0.78125 3.671875 -0.78125 C 4.210938 -0.78125 4.640625 -0.882812 4.953125 -1.09375 C 5.273438 -1.3125 5.4375 -1.609375 5.4375 -1.984375 C 5.4375 -2.335938 5.28125 -2.625 4.96875 -2.84375 C 4.664062 -3.0625 4.171875 -3.25 3.484375 -3.40625 C 2.535156 -3.632812 1.84375 -3.925781 1.40625 -4.28125 C 0.96875 -4.632812 0.75 -5.109375 0.75 -5.703125 C 0.75 -6.359375 0.992188 -6.875 1.484375 -7.25 C 1.984375 -7.632812 2.648438 -7.828125 3.484375 -7.828125 C 4.347656 -7.828125 5.03125 -7.609375 5.53125 -7.171875 C 6.03125 -6.742188 6.285156 -6.15625 6.296875 -5.40625 L 5.34375 -5.40625 C 5.332031 -5.863281 5.160156 -6.226562 4.828125 -6.5 C 4.492188 -6.769531 4.046875 -6.90625 3.484375 -6.90625 C 2.941406 -6.90625 2.515625 -6.796875 2.203125 -6.578125 C 1.890625 -6.359375 1.734375 -6.066406 1.734375 -5.703125 C 1.734375 -5.390625 1.875 -5.125 2.15625 -4.90625 C 2.445312 -4.6875 2.96875 -4.488281 3.71875 -4.3125 C 4.695312 -4.070312 5.394531 -3.769531 5.8125 -3.40625 C 6.226562 -3.039062 6.4375 -2.578125 6.4375 -2.015625 C 6.4375 -1.347656 6.1875 -0.820312 5.6875 -0.4375 C 5.1875 -0.0507812 4.515625 0.140625 3.671875 0.140625 Z M 3.671875 0.140625 "/></g></g></g><g fill="#322f30" fill-opacity="1"><g transform="translate(290.58209, 134.422975)"><g/></g></g><g fill="#322f30" fill-opacity="1"><g transform="translate(299.275669, 134.422975)"><g><path d="M 3.671875 0.140625 C 3.054688 0.140625 2.523438 0.0351562 2.078125 -0.171875 C 1.628906 -0.378906 1.28125 -0.671875 1.03125 -1.046875 C 0.789062 -1.421875 0.664062 -1.859375 0.65625 -2.359375 L 1.625 -2.359375 C 1.632812 -1.867188 1.828125 -1.484375 2.203125 -1.203125 C 2.585938 -0.921875 3.078125 -0.78125 3.671875 -0.78125 C 4.210938 -0.78125 4.640625 -0.882812 4.953125 -1.09375 C 5.273438 -1.3125 5.4375 -1.609375 5.4375 -1.984375 C 5.4375 -2.335938 5.28125 -2.625 4.96875 -2.84375 C 4.664062 -3.0625 4.171875 -3.25 3.484375 -3.40625 C 2.535156 -3.632812 1.84375 -3.925781 1.40625 -4.28125 C 0.96875 -4.632812 0.75 -5.109375 0.75 -5.703125 C 0.75 -6.359375 0.992188 -6.875 1.484375 -7.25 C 1.984375 -7.632812 2.648438 -7.828125 3.484375 -7.828125 C 4.347656 -7.828125 5.03125 -7.609375 5.53125 -7.171875 C 6.03125 -6.742188 6.285156 -6.15625 6.296875 -5.40625 L 5.34375 -5.40625 C 5.332031 -5.863281 5.160156 -6.226562 4.828125 -6.5 C 4.492188 -6.769531 4.046875 -6.90625 3.484375 -6.90625 C 2.941406 -6.90625 2.515625 -6.796875 2.203125 -6.578125 C 1.890625 -6.359375 1.734375 -6.066406 1.734375 -5.703125 C 1.734375 -5.390625 1.875 -5.125 2.15625 -4.90625 C 2.445312 -4.6875 2.96875 -4.488281 3.71875 -4.3125 C 4.695312 -4.070312 5.394531 -3.769531 5.8125 -3.40625 C 6.226562 -3.039062 6.4375 -2.578125 6.4375 -2.015625 C 6.4375 -1.347656 6.1875 -0.820312 5.6875 -0.4375 C 5.1875 -0.0507812 4.515625 0.140625 3.671875 0.140625 Z M 3.671875 0.140625 "/></g></g></g><g fill="#322f30" fill-opacity="1"><g transform="translate(312.346866, 134.422975)"><g><path d="M 2.96875 0 L 2.96875 -6.75 L 0.375 -6.75 L 0.375 -7.671875 L 6.53125 -7.671875 L 6.53125 -6.75 L 3.9375 -6.75 L 3.9375 0 Z M 2.96875 0 "/></g></g></g><g fill="#322f30" fill-opacity="1"><g transform="translate(325.231535, 134.422975)"><g><path d="M 1.125 0 L 1.125 -7.671875 L 2.078125 -7.671875 L 2.078125 0 Z M 1.125 0 "/></g></g></g><g fill="#322f30" fill-opacity="1"><g transform="translate(334.407848, 134.422975)"><g><path d="M 4.515625 0.140625 C 3.953125 0.140625 3.429688 0.0390625 2.953125 -0.15625 C 2.484375 -0.351562 2.070312 -0.628906 1.71875 -0.984375 C 1.375 -1.335938 1.109375 -1.753906 0.921875 -2.234375 C 0.734375 -2.722656 0.640625 -3.257812 0.640625 -3.84375 C 0.640625 -4.414062 0.734375 -4.945312 0.921875 -5.4375 C 1.109375 -5.925781 1.375 -6.347656 1.71875 -6.703125 C 2.070312 -7.054688 2.484375 -7.332031 2.953125 -7.53125 C 3.429688 -7.726562 3.953125 -7.828125 4.515625 -7.828125 C 5.117188 -7.828125 5.675781 -7.710938 6.1875 -7.484375 C 6.695312 -7.265625 7.132812 -6.945312 7.5 -6.53125 C 7.863281 -6.113281 8.128906 -5.625 8.296875 -5.0625 L 7.265625 -5.0625 C 7.066406 -5.625 6.722656 -6.0625 6.234375 -6.375 C 5.742188 -6.695312 5.179688 -6.859375 4.546875 -6.859375 C 3.984375 -6.859375 3.476562 -6.726562 3.03125 -6.46875 C 2.59375 -6.21875 2.25 -5.863281 2 -5.40625 C 1.75 -4.957031 1.625 -4.4375 1.625 -3.84375 C 1.625 -3.25 1.75 -2.722656 2 -2.265625 C 2.25 -1.816406 2.59375 -1.460938 3.03125 -1.203125 C 3.476562 -0.953125 3.984375 -0.828125 4.546875 -0.828125 C 5.203125 -0.828125 5.78125 -0.992188 6.28125 -1.328125 C 6.789062 -1.660156 7.144531 -2.117188 7.34375 -2.703125 L 8.359375 -2.703125 C 8.203125 -2.128906 7.9375 -1.628906 7.5625 -1.203125 C 7.195312 -0.785156 6.753906 -0.457031 6.234375 -0.21875 C 5.710938 0.0195312 5.140625 0.140625 4.515625 0.140625 Z M 4.515625 0.140625 "/></g></g></g><g fill="#322f30" fill-opacity="1"><g transform="translate(349.3332, 134.422975)"><g><path d="M 1.125 0 L 1.125 -7.671875 L 2.078125 -7.671875 L 2.078125 -4.375 L 3.1875 -4.375 C 3.695312 -4.375 4.082031 -4.46875 4.34375 -4.65625 C 4.613281 -4.84375 4.828125 -5.144531 4.984375 -5.5625 L 5.765625 -7.671875 L 6.796875 -7.671875 L 5.84375 -5.171875 C 5.738281 -4.878906 5.601562 -4.625 5.4375 -4.40625 C 5.28125 -4.195312 5.09375 -4.019531 4.875 -3.875 L 7.078125 0 L 5.96875 0 L 3.984375 -3.515625 C 3.742188 -3.472656 3.476562 -3.453125 3.1875 -3.453125 L 2.078125 -3.453125 L 2.078125 0 Z M 1.125 0 "/></g></g></g></svg>